<mxfile host="app.diagrams.net" agent="Mozilla/5.0 (Windows NT 10.0; Win64; x64) AppleWebKit/537.36 (KHTML, like Gecko) Chrome/135.0.0.0 Safari/537.36" version="26.2.12">
  <diagram name="Page-1" id="7e0a89b8-554c-2b80-1dc8-d5c74ca68de4">
    <mxGraphModel dx="1429" dy="835" grid="1" gridSize="1" guides="1" tooltips="1" connect="1" arrows="1" fold="1" page="1" pageScale="1" pageWidth="1100" pageHeight="850" background="none" math="0" shadow="0">
      <root>
        <mxCell id="0" />
        <mxCell id="1" parent="0" />
        <mxCell id="jg1CKJlf0xm0C-iaP3_J-50" value="" style="whiteSpace=wrap;html=1;aspect=fixed;" vertex="1" parent="1">
          <mxGeometry x="283" y="128" width="622" height="622" as="geometry" />
        </mxCell>
        <mxCell id="jg1CKJlf0xm0C-iaP3_J-1" value="4 X 4&amp;nbsp;&lt;div&gt;One - Hot Multiplexer&lt;/div&gt;" style="rounded=0;whiteSpace=wrap;html=1;" vertex="1" parent="1">
          <mxGeometry x="504" y="190" width="224" height="170" as="geometry" />
        </mxCell>
        <mxCell id="jg1CKJlf0xm0C-iaP3_J-2" value="a0" style="text;html=1;align=center;verticalAlign=middle;resizable=0;points=[];autosize=1;strokeColor=none;fillColor=none;" vertex="1" parent="1">
          <mxGeometry x="504" y="200" width="32" height="27" as="geometry" />
        </mxCell>
        <mxCell id="jg1CKJlf0xm0C-iaP3_J-3" value="a1" style="text;html=1;align=center;verticalAlign=middle;resizable=0;points=[];autosize=1;strokeColor=none;fillColor=none;" vertex="1" parent="1">
          <mxGeometry x="504" y="240" width="32" height="27" as="geometry" />
        </mxCell>
        <mxCell id="jg1CKJlf0xm0C-iaP3_J-4" value="a2" style="text;html=1;align=center;verticalAlign=middle;resizable=0;points=[];autosize=1;strokeColor=none;fillColor=none;" vertex="1" parent="1">
          <mxGeometry x="504" y="280" width="32" height="27" as="geometry" />
        </mxCell>
        <mxCell id="jg1CKJlf0xm0C-iaP3_J-5" value="a3" style="text;html=1;align=center;verticalAlign=middle;resizable=0;points=[];autosize=1;strokeColor=none;fillColor=none;" vertex="1" parent="1">
          <mxGeometry x="504" y="320" width="32" height="27" as="geometry" />
        </mxCell>
        <mxCell id="jg1CKJlf0xm0C-iaP3_J-49" style="rounded=0;orthogonalLoop=1;jettySize=auto;html=1;endArrow=box;endFill=0;" edge="1" parent="1" source="jg1CKJlf0xm0C-iaP3_J-7">
          <mxGeometry relative="1" as="geometry">
            <mxPoint x="908.9999999999998" y="267" as="targetPoint" />
          </mxGeometry>
        </mxCell>
        <mxCell id="jg1CKJlf0xm0C-iaP3_J-7" value="Z" style="text;html=1;align=center;verticalAlign=middle;resizable=0;points=[];autosize=1;strokeColor=none;fillColor=none;" vertex="1" parent="1">
          <mxGeometry x="697" y="252" width="30" height="30" as="geometry" />
        </mxCell>
        <mxCell id="jg1CKJlf0xm0C-iaP3_J-8" value="s00" style="text;html=1;align=center;verticalAlign=middle;resizable=0;points=[];autosize=1;strokeColor=none;fillColor=none;" vertex="1" parent="1">
          <mxGeometry x="550" y="330" width="40" height="30" as="geometry" />
        </mxCell>
        <mxCell id="jg1CKJlf0xm0C-iaP3_J-9" value="s01" style="text;html=1;align=center;verticalAlign=middle;resizable=0;points=[];autosize=1;strokeColor=none;fillColor=none;" vertex="1" parent="1">
          <mxGeometry x="590" y="330" width="40" height="30" as="geometry" />
        </mxCell>
        <mxCell id="jg1CKJlf0xm0C-iaP3_J-10" value="s10" style="text;html=1;align=center;verticalAlign=middle;resizable=0;points=[];autosize=1;strokeColor=none;fillColor=none;" vertex="1" parent="1">
          <mxGeometry x="630" y="330" width="40" height="30" as="geometry" />
        </mxCell>
        <mxCell id="jg1CKJlf0xm0C-iaP3_J-11" value="s11" style="text;html=1;align=center;verticalAlign=middle;resizable=0;points=[];autosize=1;strokeColor=none;fillColor=none;" vertex="1" parent="1">
          <mxGeometry x="670" y="330" width="40" height="30" as="geometry" />
        </mxCell>
        <mxCell id="jg1CKJlf0xm0C-iaP3_J-12" value="" style="verticalLabelPosition=bottom;shadow=0;dashed=0;align=center;html=1;verticalAlign=top;shape=mxgraph.electrical.logic_gates.logic_gate;operation=and;" vertex="1" parent="1">
          <mxGeometry x="420" y="440" width="100" height="60" as="geometry" />
        </mxCell>
        <mxCell id="jg1CKJlf0xm0C-iaP3_J-28" style="rounded=0;orthogonalLoop=1;jettySize=auto;html=1;endArrow=box;endFill=0;" edge="1" parent="1">
          <mxGeometry relative="1" as="geometry">
            <mxPoint x="280" y="534" as="targetPoint" />
            <mxPoint x="349" y="534" as="sourcePoint" />
          </mxGeometry>
        </mxCell>
        <mxCell id="jg1CKJlf0xm0C-iaP3_J-38" style="rounded=0;orthogonalLoop=1;jettySize=auto;html=1;exitX=0;exitY=0.25;exitDx=0;exitDy=0;exitPerimeter=0;endArrow=oval;endFill=1;" edge="1" parent="1" source="jg1CKJlf0xm0C-iaP3_J-13">
          <mxGeometry relative="1" as="geometry">
            <mxPoint x="348" y="534" as="targetPoint" />
          </mxGeometry>
        </mxCell>
        <mxCell id="jg1CKJlf0xm0C-iaP3_J-13" value="" style="verticalLabelPosition=bottom;shadow=0;dashed=0;align=center;html=1;verticalAlign=top;shape=mxgraph.electrical.logic_gates.logic_gate;operation=and;" vertex="1" parent="1">
          <mxGeometry x="420" y="520" width="100" height="60" as="geometry" />
        </mxCell>
        <mxCell id="jg1CKJlf0xm0C-iaP3_J-24" style="edgeStyle=orthogonalEdgeStyle;rounded=0;orthogonalLoop=1;jettySize=auto;html=1;exitX=0;exitY=0.75;exitDx=0;exitDy=0;exitPerimeter=0;endArrow=box;endFill=0;" edge="1" parent="1" source="jg1CKJlf0xm0C-iaP3_J-14">
          <mxGeometry relative="1" as="geometry">
            <mxPoint x="280" y="644.9444444444445" as="targetPoint" />
          </mxGeometry>
        </mxCell>
        <mxCell id="jg1CKJlf0xm0C-iaP3_J-14" value="" style="verticalLabelPosition=bottom;shadow=0;dashed=0;align=center;html=1;verticalAlign=top;shape=mxgraph.electrical.logic_gates.logic_gate;operation=and;" vertex="1" parent="1">
          <mxGeometry x="420" y="600" width="100" height="60" as="geometry" />
        </mxCell>
        <mxCell id="jg1CKJlf0xm0C-iaP3_J-25" style="edgeStyle=orthogonalEdgeStyle;rounded=0;orthogonalLoop=1;jettySize=auto;html=1;exitX=0;exitY=0.75;exitDx=0;exitDy=0;exitPerimeter=0;endArrow=oval;startFill=0;endFill=1;" edge="1" parent="1" source="jg1CKJlf0xm0C-iaP3_J-15">
          <mxGeometry relative="1" as="geometry">
            <mxPoint x="349" y="645" as="targetPoint" />
            <mxPoint x="419" y="725" as="sourcePoint" />
          </mxGeometry>
        </mxCell>
        <mxCell id="jg1CKJlf0xm0C-iaP3_J-15" value="" style="verticalLabelPosition=bottom;shadow=0;dashed=0;align=center;html=1;verticalAlign=top;shape=mxgraph.electrical.logic_gates.logic_gate;operation=and;" vertex="1" parent="1">
          <mxGeometry x="420" y="680" width="100" height="60" as="geometry" />
        </mxCell>
        <mxCell id="jg1CKJlf0xm0C-iaP3_J-16" style="edgeStyle=orthogonalEdgeStyle;rounded=0;orthogonalLoop=1;jettySize=auto;html=1;exitX=1;exitY=0.5;exitDx=0;exitDy=0;exitPerimeter=0;entryX=0.465;entryY=0.978;entryDx=0;entryDy=0;entryPerimeter=0;endArrow=oval;endFill=1;" edge="1" parent="1" source="jg1CKJlf0xm0C-iaP3_J-12" target="jg1CKJlf0xm0C-iaP3_J-8">
          <mxGeometry relative="1" as="geometry" />
        </mxCell>
        <mxCell id="jg1CKJlf0xm0C-iaP3_J-17" style="edgeStyle=orthogonalEdgeStyle;rounded=0;orthogonalLoop=1;jettySize=auto;html=1;exitX=1;exitY=0.5;exitDx=0;exitDy=0;exitPerimeter=0;entryX=0.519;entryY=0.961;entryDx=0;entryDy=0;entryPerimeter=0;endArrow=oval;endFill=1;" edge="1" parent="1" source="jg1CKJlf0xm0C-iaP3_J-13" target="jg1CKJlf0xm0C-iaP3_J-9">
          <mxGeometry relative="1" as="geometry" />
        </mxCell>
        <mxCell id="jg1CKJlf0xm0C-iaP3_J-18" style="edgeStyle=orthogonalEdgeStyle;rounded=0;orthogonalLoop=1;jettySize=auto;html=1;exitX=1;exitY=0.5;exitDx=0;exitDy=0;exitPerimeter=0;entryX=0.497;entryY=1.046;entryDx=0;entryDy=0;entryPerimeter=0;endArrow=oval;endFill=1;" edge="1" parent="1" source="jg1CKJlf0xm0C-iaP3_J-14">
          <mxGeometry relative="1" as="geometry">
            <mxPoint x="520" y="628" as="sourcePoint" />
            <mxPoint x="649.8799999999999" y="359.38" as="targetPoint" />
          </mxGeometry>
        </mxCell>
        <mxCell id="jg1CKJlf0xm0C-iaP3_J-19" style="edgeStyle=orthogonalEdgeStyle;rounded=0;orthogonalLoop=1;jettySize=auto;html=1;exitX=1;exitY=0.5;exitDx=0;exitDy=0;exitPerimeter=0;endArrow=oval;endFill=1;" edge="1" parent="1" source="jg1CKJlf0xm0C-iaP3_J-15">
          <mxGeometry relative="1" as="geometry">
            <mxPoint x="520" y="706" as="sourcePoint" />
            <mxPoint x="691" y="359" as="targetPoint" />
          </mxGeometry>
        </mxCell>
        <mxCell id="jg1CKJlf0xm0C-iaP3_J-27" style="edgeStyle=orthogonalEdgeStyle;rounded=0;orthogonalLoop=1;jettySize=auto;html=1;exitX=0;exitY=0.5;exitDx=0;exitDy=0;exitPerimeter=0;endArrow=oval;startFill=0;endFill=1;" edge="1" parent="1" source="jg1CKJlf0xm0C-iaP3_J-20">
          <mxGeometry relative="1" as="geometry">
            <mxPoint x="349" y="565" as="targetPoint" />
          </mxGeometry>
        </mxCell>
        <mxCell id="jg1CKJlf0xm0C-iaP3_J-20" value="" style="verticalLabelPosition=bottom;shadow=0;dashed=0;align=center;html=1;verticalAlign=top;shape=mxgraph.electrical.logic_gates.inverter_2" vertex="1" parent="1">
          <mxGeometry x="369" y="472" width="51" height="26" as="geometry" />
        </mxCell>
        <mxCell id="jg1CKJlf0xm0C-iaP3_J-21" value="" style="verticalLabelPosition=bottom;shadow=0;dashed=0;align=center;html=1;verticalAlign=top;shape=mxgraph.electrical.logic_gates.inverter_2" vertex="1" parent="1">
          <mxGeometry x="369" y="442" width="51" height="26" as="geometry" />
        </mxCell>
        <mxCell id="jg1CKJlf0xm0C-iaP3_J-26" style="edgeStyle=orthogonalEdgeStyle;rounded=0;orthogonalLoop=1;jettySize=auto;html=1;exitX=0;exitY=0.5;exitDx=0;exitDy=0;exitPerimeter=0;endArrow=oval;startFill=0;endFill=1;" edge="1" parent="1" source="jg1CKJlf0xm0C-iaP3_J-22">
          <mxGeometry relative="1" as="geometry">
            <mxPoint x="349.0000000000001" y="645" as="targetPoint" />
          </mxGeometry>
        </mxCell>
        <mxCell id="jg1CKJlf0xm0C-iaP3_J-22" value="" style="verticalLabelPosition=bottom;shadow=0;dashed=0;align=center;html=1;verticalAlign=top;shape=mxgraph.electrical.logic_gates.inverter_2" vertex="1" parent="1">
          <mxGeometry x="369" y="552" width="51" height="26" as="geometry" />
        </mxCell>
        <mxCell id="jg1CKJlf0xm0C-iaP3_J-33" style="edgeStyle=orthogonalEdgeStyle;rounded=0;orthogonalLoop=1;jettySize=auto;html=1;exitX=0;exitY=0.5;exitDx=0;exitDy=0;exitPerimeter=0;endArrow=oval;startFill=0;endFill=1;" edge="1" parent="1" source="jg1CKJlf0xm0C-iaP3_J-23">
          <mxGeometry relative="1" as="geometry">
            <mxPoint x="363" y="615" as="targetPoint" />
          </mxGeometry>
        </mxCell>
        <mxCell id="jg1CKJlf0xm0C-iaP3_J-23" value="" style="verticalLabelPosition=bottom;shadow=0;dashed=0;align=center;html=1;verticalAlign=top;shape=mxgraph.electrical.logic_gates.inverter_2" vertex="1" parent="1">
          <mxGeometry x="370" y="602" width="51" height="26" as="geometry" />
        </mxCell>
        <mxCell id="jg1CKJlf0xm0C-iaP3_J-32" style="edgeStyle=orthogonalEdgeStyle;rounded=0;orthogonalLoop=1;jettySize=auto;html=1;exitX=0;exitY=0.5;exitDx=0;exitDy=0;exitPerimeter=0;entryX=0;entryY=0.25;entryDx=0;entryDy=0;entryPerimeter=0;endArrow=oval;startFill=0;endFill=1;" edge="1" parent="1" source="jg1CKJlf0xm0C-iaP3_J-21" target="jg1CKJlf0xm0C-iaP3_J-15">
          <mxGeometry relative="1" as="geometry">
            <Array as="points">
              <mxPoint x="363" y="455" />
              <mxPoint x="363" y="695" />
            </Array>
          </mxGeometry>
        </mxCell>
        <mxCell id="jg1CKJlf0xm0C-iaP3_J-39" value="s0 [0]" style="text;html=1;align=center;verticalAlign=middle;resizable=0;points=[];autosize=1;strokeColor=none;fillColor=none;" vertex="1" parent="1">
          <mxGeometry x="231" y="521" width="48" height="27" as="geometry" />
        </mxCell>
        <mxCell id="jg1CKJlf0xm0C-iaP3_J-40" value="s0 [1]" style="text;html=1;align=center;verticalAlign=middle;resizable=0;points=[];autosize=1;strokeColor=none;fillColor=none;" vertex="1" parent="1">
          <mxGeometry x="231" y="630" width="48" height="27" as="geometry" />
        </mxCell>
        <mxCell id="jg1CKJlf0xm0C-iaP3_J-42" style="rounded=0;orthogonalLoop=1;jettySize=auto;html=1;endArrow=oval;endFill=1;edgeStyle=orthogonalEdgeStyle;" edge="1" parent="1">
          <mxGeometry relative="1" as="geometry">
            <mxPoint x="395" y="335" as="targetPoint" />
            <mxPoint x="504" y="295" as="sourcePoint" />
          </mxGeometry>
        </mxCell>
        <mxCell id="jg1CKJlf0xm0C-iaP3_J-43" style="rounded=0;orthogonalLoop=1;jettySize=auto;html=1;endArrow=box;endFill=0;" edge="1" parent="1">
          <mxGeometry relative="1" as="geometry">
            <mxPoint x="279" y="335" as="targetPoint" />
            <mxPoint x="504" y="335" as="sourcePoint" />
          </mxGeometry>
        </mxCell>
        <mxCell id="jg1CKJlf0xm0C-iaP3_J-44" style="rounded=0;orthogonalLoop=1;jettySize=auto;html=1;endArrow=box;endFill=0;" edge="1" parent="1">
          <mxGeometry relative="1" as="geometry">
            <mxPoint x="279" y="215" as="targetPoint" />
            <mxPoint x="504" y="215" as="sourcePoint" />
          </mxGeometry>
        </mxCell>
        <mxCell id="jg1CKJlf0xm0C-iaP3_J-45" style="rounded=0;orthogonalLoop=1;jettySize=auto;html=1;endArrow=box;endFill=0;" edge="1" parent="1">
          <mxGeometry relative="1" as="geometry">
            <mxPoint x="279" y="255" as="targetPoint" />
            <mxPoint x="504" y="255" as="sourcePoint" />
          </mxGeometry>
        </mxCell>
        <mxCell id="jg1CKJlf0xm0C-iaP3_J-46" value="c" style="text;html=1;align=center;verticalAlign=middle;resizable=0;points=[];autosize=1;strokeColor=none;fillColor=none;" vertex="1" parent="1">
          <mxGeometry x="229" y="201" width="25" height="27" as="geometry" />
        </mxCell>
        <mxCell id="jg1CKJlf0xm0C-iaP3_J-47" value="b" style="text;html=1;align=center;verticalAlign=middle;resizable=0;points=[];autosize=1;strokeColor=none;fillColor=none;" vertex="1" parent="1">
          <mxGeometry x="229" y="242" width="26" height="27" as="geometry" />
        </mxCell>
        <mxCell id="jg1CKJlf0xm0C-iaP3_J-48" value="a" style="text;html=1;align=center;verticalAlign=middle;resizable=0;points=[];autosize=1;strokeColor=none;fillColor=none;" vertex="1" parent="1">
          <mxGeometry x="230" y="321" width="26" height="27" as="geometry" />
        </mxCell>
        <mxCell id="jg1CKJlf0xm0C-iaP3_J-51" value="top" style="text;html=1;align=center;verticalAlign=middle;resizable=0;points=[];autosize=1;strokeColor=none;fillColor=none;" vertex="1" parent="1">
          <mxGeometry x="282" y="128" width="36" height="27" as="geometry" />
        </mxCell>
      </root>
    </mxGraphModel>
  </diagram>
</mxfile>
